<?xml version="1.0" encoding="utf-8"?>
<!-- Generator: Adobe Illustrator 19.2.1, SVG Export Plug-In . SVG Version: 6.00 Build 0)  -->
<svg version="1.1" id="Capa_1" xmlns="http://www.w3.org/2000/svg" xmlns:xlink="http://www.w3.org/1999/xlink" x="0px" y="0px"
	 viewBox="0 0 500 72.2" style="enable-background:new 0 0 500 72.2;" xml:space="preserve">
<style type="text/css">
	.st0{fill:#1F1B1C;}
	.st1{fill:#FDFDFD;}
	.st2{fill:#DE092B;}
	.st3{fill:#01AB9F;}
	.st4{fill:#F3C204;}
	.st5{fill:#336EB4;}
	.st6{fill:#A30F0F;}
</style>
<rect y="0.1" class="st0" width="500" height="72"/>
<g>
	<path id="P" class="st1" d="M81.3,15.4v4.7c0,0,25.5,0,27.7,0c2.6,0.9,2.7,4.1,2.7,4.1v5c0,0-0.3,2.9-2.5,4c-1.7,0-21.2,0-22.8,0
		c-2.1,0.6-5.1,5.2-5.1,9c-0.1,1.5,0,14.9,0,15h5.3V42.3c0,0,0.6-3.7,2.3-4.4c2,0.1,22.8,0.1,22.8,0.1s5.1-2.7,5.2-8s0-7,0-7
		s-0.4-6.1-5-7.6C108,15.4,81.3,15.4,81.3,15.4z"/>
	<path id="S" class="st1" d="M115.5,57.3v-4.9h14.7c0.7-0.5,1.9-2.1,1.9-4.5c0-3.6,0-23.2,0-23.2s0.5-7.5,5-9.3c1,0,17.2,0,17.2,0
		V20l-14.5,0.1c-0.6,0.4-1.9,2.3-2,4.7c-0.2,3.8,0,22.6,0,22.6c-0.5,4.1-2.3,9.1-5.6,9.8C130.4,57.3,115.5,57.3,115.5,57.3z"/>
	<path id="_x33_" class="st1" d="M159,57.3h30.3c5.5-1.9,5.5-8.9,5.5-8.9v-6.8c0-3.8-2.1-6.5-2.1-6.5s1.8-2.2,2.1-5.7v-6.1
		c-1.1-7.5-5.3-8-5.3-8H159v4.6l28,0.1c0,0,2,0.7,2.3,4.3v3.8c0,0,0.2,3.4-1.9,4.6H159v5.1h28.4c2.2,1.7,2,4.9,2,4.9V48
		c0,0,0.3,3.3-2.1,4.2H159V57.3L159,57.3z"/>
</g>
<g>
	<path class="st2" d="M36.3,55.1V38.9V15.4c0,0,4.2,1.6,5.3,1.7c1.2,0.2,7.1,2,8.4,3c1.3,0.9,5.2,3,5.9,8.1
		c0.8,5.1-0.4,10.1-2.2,11.1c-1.5,1.3-2.9,1.8-6.8,0.7c0-3.4,0-15.7,0-15.7s-0.1-0.8-1.2-1.3c-1.3,0.1-1.6,0.5-1.8,1.3
		C44,24.7,44,35,44,44c0,3.1,0,6.2,0,8.6c0,3.1,0,5.2,0,5.2L36.3,55.1z"/>
	<g id="XMLID_5_">
		<g>
			<polygon class="st3" points="50.9,46.5 44,49.2 44.1,44 			"/>
		</g>
	</g>
	<polygon class="st4" points="50.9,55.3 44,52.7 44,57.9 	"/>
	<g id="XMLID_1_">
		<g>
			<polygon class="st3" points="62.1,50.6 50.9,55.3 44,52.7 44,52.2 54.8,47.9 			"/>
		</g>
	</g>
	<g id="XMLID_6_">
		<g>
			<path class="st5" d="M61.1,42.3c3.9,1,5.9,3.3,4.9,5.4c-1,2-3.8,3-3.8,3L54.9,48c0,0,1-0.3,2.1-0.8c1.2-0.4,2.1-1.2,2.1-1.2
				s0.5-0.7-0.6-1.2c-1.6-0.2-3.4,0.2-3.4,0.2L51,46.5c-4.1-1.5-1.8-0.7-6.8-2.5c0.4-0.4,5.9-2.2,7.9-2.4
				C53.9,41.4,57.1,41.3,61.1,42.3z"/>
		</g>
	</g>
	<g id="XMLID_2_">
		<g>
			<polygon class="st5" points="36.3,38.9 36.3,41.3 33.3,40.1 			"/>
		</g>
	</g>
	<g id="XMLID_3_">
		<g>
			<polygon class="st3" points="36.3,41.3 36.3,43.8 28.6,47 22,44.5 33.3,40.1 			"/>
		</g>
	</g>
	<g id="XMLID_4_">
		<g>
			<polygon class="st3" points="36.3,47.1 36.3,49.8 32.8,48.5 			"/>
		</g>
	</g>
	<path class="st4" d="M22,44.5c0,0-2.2,0.9-3.2,2.5c-0.9,1.6-1.5,4.1,2.8,5.1s10,2.4,14.6,0.1c0-2.5,0-2.5,0-2.5l-3.5-1.3l-4.2,1.7
		c0,0-1.7,0.2-2.5-0.7c-0.6-0.9,0.4-1.6,0.4-1.6l2.1-0.8L22,44.5z"/>
</g>
<rect y="69.3" class="st6" width="500" height="2.9"/>
</svg>
