<?xml version="1.0" encoding="utf-8"?>
<!-- Generator: Adobe Illustrator 19.2.1, SVG Export Plug-In . SVG Version: 6.00 Build 0)  -->
<svg version="1.1" id="Capa_1" xmlns="http://www.w3.org/2000/svg" xmlns:xlink="http://www.w3.org/1999/xlink" x="0px" y="0px"
	 viewBox="0 0 500 400" style="enable-background:new 0 0 500 400;" xml:space="preserve">
<style type="text/css">
	.st0{fill:#104173;}
</style>
<g id="XMLID_1_">
	<g>
		<path class="st0" d="M340.1,245.8c121.9-27.8,209.7,49,114.3,77.8l-169,61.3v-47.3L408.1,294c44.7-15.2-3.1-30.3-28-19.3
			L285.4,308v-48.5L340.1,245.8z"/>
		<path class="st0" d="M322.4,46.5c66.3,15.8,94.3,112.3,52.5,168c-27,30.8-72.5,6-72.5,6l-0.7-131c1.7-13.8-29-36.3-31.3,0.3V390
			l-81.5-25.5V7.5C188.9,7.5,275.4,26,322.4,46.5z"/>
		<path class="st0" d="M174.4,223v46.8l-76.2,27c-38.2,15.6-5.5,31.9,24.5,20.8l51.7-18l-1.3,41.8C58,384.9-40,300.7,38.8,271.6
			L174.4,223z"/>
	</g>
</g>
</svg>
